<?xml version="1.0" encoding="UTF-8"?>
<!DOCTYPE svg PUBLIC "-//W3C//DTD SVG 1.1//EN" "http://www.w3.org/Graphics/SVG/1.1/DTD/svg11.dtd">
<!-- Creator: CorelDRAW -->
<svg xmlns="http://www.w3.org/2000/svg" xml:space="preserve" width="4.36668in" height="4.11258in" version="1.1" style="shape-rendering:geometricPrecision; text-rendering:geometricPrecision; image-rendering:optimizeQuality; fill-rule:evenodd; clip-rule:evenodd"
viewBox="0 0 4697.52 4424.17"
 xmlns:xlink="http://www.w3.org/1999/xlink"
 xmlns:xodm="http://www.corel.com/coreldraw/odm/2003">
 <defs>
  <style type="text/css">
   <![CDATA[
    .str0 {stroke:#52576A;stroke-width:119.53;stroke-miterlimit:2.61313}
    .fil0 {fill:none}
    .fil1 {fill:#52576A;fill-rule:nonzero}
   ]]>
  </style>
 </defs>
 <g id="Layer_x0020_1">
  <metadata id="CorelCorpID_0Corel-Layer"/>
  <g id="_1809864105792">
   <circle class="fil0 str0" cx="2183.34" cy="2240.83" r="2123.57"/>
   <path class="fil1" d="M4641.09 329.11c75.24,-75.24 75.24,-197.43 0,-272.67 -75.24,-75.24 -197.43,-75.24 -272.68,0l-1155.71 1155.71 -208.87 -208.87c-25.28,-25.28 -60.19,-39.73 -96.31,-39.73 -75.24,0 -136.04,60.79 -136.04,136.03l0 175.16 651.89 651.89 175.16 0c75.24,0 136.03,-60.8 136.03,-136.04 0,-36.12 -14.45,-71.03 -39.73,-96.31l-208.87 -208.87 1155.71 -1155.71 -0.6 -0.61zm-1357.35 1798.57l-713.29 -713.29c-257.02,-22.27 -512.84,70.43 -697.04,254.62l-48.16 48.16c-134.23,134.23 -209.47,316.02 -209.47,505.62 0,40.93 42.73,67.41 79.45,49.36l307.58 -153.49c30.1,-15.05 57.18,24.68 32.51,47.55l-760.84 683.8c-27.69,25.28 -43.95,61.39 -43.95,99.32 0,73.44 59.59,133.03 133.03,133.03l1043.15 0c233.55,0 456.87,-92.7 622.4,-257.63 184.19,-184.19 276.29,-440.01 254.62,-697.04l0 0z"/>
   <path class="fil1" d="M1761.29 3807.58c-33.46,0 -64.44,-5.68 -92.94,-17.04 -28.5,-11.36 -53.39,-27.26 -74.66,-47.71 -21.27,-20.45 -37.8,-44.51 -49.57,-72.19 -11.77,-27.67 -17.66,-57.62 -17.66,-89.84 0,-32.63 5.89,-62.68 17.66,-90.15 11.77,-27.47 28.29,-51.32 49.57,-71.56 21.27,-20.24 46.06,-36.14 74.35,-47.71 28.3,-11.57 58.97,-17.35 92.01,-17.35 34.7,0 65.88,5.47 93.56,16.42 27.68,10.94 52.05,26.13 73.11,45.54l-74.35 74.35c-10.33,-11.57 -23.13,-20.66 -38.41,-27.26 -15.29,-6.61 -33.25,-9.91 -53.91,-9.91 -17.76,0 -33.98,2.89 -48.64,8.67 -14.66,5.79 -27.36,14.35 -38.1,25.71 -10.74,11.36 -19.11,24.89 -25.09,40.59 -5.99,15.7 -8.98,33.25 -8.98,52.67 0,19.41 2.99,36.97 8.98,52.67 5.99,15.7 14.35,29.22 25.09,40.58 10.74,11.36 23.44,20.03 38.1,26.02 14.66,5.99 30.88,8.98 48.64,8.98 20.66,0 38.83,-3.2 54.53,-9.6 15.7,-6.4 29.12,-15.59 40.27,-27.57l74.35 74.35c-21.48,19.41 -45.75,34.49 -72.8,45.23 -27.06,10.74 -58.76,16.11 -95.11,16.11z"/>
   <path id="_1" class="fil1" d="M2172.7 3807.58c-33.46,0 -64.44,-5.68 -92.94,-17.04 -28.5,-11.36 -53.39,-27.26 -74.66,-47.71 -21.27,-20.45 -37.8,-44.51 -49.57,-72.19 -11.77,-27.67 -17.66,-57.62 -17.66,-89.84 0,-32.63 5.89,-62.68 17.66,-90.15 11.77,-27.47 28.29,-51.32 49.57,-71.56 21.27,-20.24 46.06,-36.14 74.35,-47.71 28.3,-11.57 58.97,-17.35 92.01,-17.35 34.7,0 65.88,5.47 93.56,16.42 27.68,10.94 52.05,26.13 73.11,45.54l-74.35 74.35c-10.33,-11.57 -23.13,-20.66 -38.41,-27.26 -15.29,-6.61 -33.25,-9.91 -53.91,-9.91 -17.76,0 -33.98,2.89 -48.64,8.67 -14.66,5.79 -27.36,14.35 -38.1,25.71 -10.74,11.36 -19.11,24.89 -25.09,40.59 -5.99,15.7 -8.98,33.25 -8.98,52.67 0,19.41 2.99,36.97 8.98,52.67 5.99,15.7 14.35,29.22 25.09,40.58 10.74,11.36 23.44,20.03 38.1,26.02 14.66,5.99 30.88,8.98 48.64,8.98 20.66,0 38.83,-3.2 54.53,-9.6 15.7,-6.4 29.12,-15.59 40.27,-27.57l74.35 74.35c-21.48,19.41 -45.75,34.49 -72.8,45.23 -27.06,10.74 -58.76,16.11 -95.11,16.11z"/>
   <path id="_2" class="fil1" d="M2584.11 3807.58c-33.46,0 -64.44,-5.68 -92.94,-17.04 -28.5,-11.36 -53.39,-27.26 -74.66,-47.71 -21.27,-20.45 -37.8,-44.51 -49.57,-72.19 -11.77,-27.67 -17.66,-57.62 -17.66,-89.84 0,-32.63 5.89,-62.68 17.66,-90.15 11.77,-27.47 28.29,-51.32 49.57,-71.56 21.27,-20.24 46.06,-36.14 74.35,-47.71 28.3,-11.57 58.97,-17.35 92.01,-17.35 34.7,0 65.88,5.47 93.56,16.42 27.68,10.94 52.05,26.13 73.11,45.54l-74.35 74.35c-10.33,-11.57 -23.13,-20.66 -38.41,-27.26 -15.29,-6.61 -33.25,-9.91 -53.91,-9.91 -17.76,0 -33.98,2.89 -48.64,8.67 -14.66,5.79 -27.36,14.35 -38.1,25.71 -10.74,11.36 -19.11,24.89 -25.09,40.59 -5.99,15.7 -8.98,33.25 -8.98,52.67 0,19.41 2.99,36.97 8.98,52.67 5.99,15.7 14.35,29.22 25.09,40.58 10.74,11.36 23.44,20.03 38.1,26.02 14.66,5.99 30.88,8.98 48.64,8.98 20.66,0 38.83,-3.2 54.53,-9.6 15.7,-6.4 29.12,-15.59 40.27,-27.57l74.35 74.35c-21.48,19.41 -45.75,34.49 -72.8,45.23 -27.06,10.74 -58.76,16.11 -95.11,16.11z"/>
   <g transform="matrix(0.745459 0.666552 -0.666552 0.745459 1033.92 -1480.38)">
    <path class="fil1" d="M1294.57 1758.65l287.69 -235.18 36.3 32.46 -287.63 235.25 -36.36 -32.52zm-36.45 -180.36l30.77 -34.41 204.44 182.8 -30.77 34.41 -204.44 -182.8zm-48.01 104.84l287.7 -235.18 36.36 32.51 -287.69 235.19 -36.36 -32.52zm132.5 -174.93l30.71 -34.34 204.83 183.14 -30.71 34.34 -204.83 -183.14z"/>
   </g>
   <polygon class="fil1" points="826.48,3176.48 964.7,2791.41 1015.55,2791.41 877.33,3176.48 "/>
   <polygon id="_1_6" class="fil1" points="1024.44,3176.48 1162.67,2791.41 1213.51,2791.41 1075.29,3176.48 "/>
   <g transform="matrix(0.568391 0.822759 -0.822759 0.568391 892.428 -815.557)">
    <polygon class="fil1" points="516.27,2472.56 459.94,2177.1 501.01,2148.73 757.5,2305.9 700.51,2345.28 502.84,2217.25 523.38,2203.06 573.26,2433.19 "/>
    <path id="_1_7" class="fil1" d="M633.05 2496.68l245.16 -180.75 40.79 59.05 -255.8 165.34 -30.15 -43.64zm-109.36 107.4c-7.56,-10.95 -10.09,-22.48 -7.58,-34.58 2.51,-12.1 9.07,-21.82 19.68,-29.14 10.96,-7.57 22.45,-10.33 34.48,-8.28 12.04,2.05 21.84,8.56 29.41,19.51 7.57,10.95 10.18,22.42 7.84,34.4 -2.34,11.99 -8.99,21.76 -19.94,29.33 -10.61,7.33 -22.02,10.03 -34.23,8.09 -12.21,-1.94 -22.1,-8.38 -29.66,-19.33z"/>
   </g>
   <polygon class="fil1" points="1111.38,2396.48 1108.5,2305.47 1034.2,2355.58 1007.7,2304.32 1091.8,2273.79 1022.1,2219.65 1063,2178.76 1117.14,2248.45 1147.66,2164.36 1199.5,2190.85 1148.82,2265.15 1239.82,2268.03 1230.6,2325.06 1143.63,2299.71 1168.98,2387.26 "/>
   <polygon id="_1_8" class="fil1" points="1394.18,2396.48 1391.3,2305.47 1317,2355.58 1290.51,2304.32 1374.6,2273.79 1304.91,2219.65 1345.8,2178.76 1399.94,2248.45 1430.47,2164.36 1482.31,2190.85 1431.62,2265.15 1522.62,2268.03 1513.41,2325.06 1426.44,2299.71 1451.78,2387.26 "/>
  </g>
 </g>
</svg>
